<?xml version="1.0" encoding="utf-8" standalone="no"?>
<!DOCTYPE svg PUBLIC "-//W3C//DTD SVG 1.1//EN"
  "http://www.w3.org/Graphics/SVG/1.1/DTD/svg11.dtd">
<svg xmlns:xlink="http://www.w3.org/1999/xlink" width="720pt" height="302.4pt" viewBox="0 0 720 302.4" xmlns="http://www.w3.org/2000/svg" version="1.1">
 <metadata>
  <rdf:RDF xmlns:dc="http://purl.org/dc/elements/1.1/" xmlns:cc="http://creativecommons.org/ns#" xmlns:rdf="http://www.w3.org/1999/02/22-rdf-syntax-ns#">
   <cc:Work>
    <dc:type rdf:resource="http://purl.org/dc/dcmitype/StillImage"/>
    <dc:date>2026-09-27T18:47:49.426949</dc:date>
    <dc:format>image/svg+xml</dc:format>
    <dc:creator>
     <cc:Agent>
      <dc:title>Matplotlib v3.9.4, https://matplotlib.org/</dc:title>
     </cc:Agent>
    </dc:creator>
   </cc:Work>
  </rdf:RDF>
 </metadata>
 <defs>
  <style type="text/css">*{stroke-linejoin: round; stroke-linecap: butt}</style>
 </defs>
 <g id="figure_1">
  <g id="patch_1">
   <path d="M 0 302.4 
L 720 302.4 
L 720 0 
L 0 0 
z
" style="fill: #fcfcfb"/>
  </g>
  <g id="axes_1">
   <g id="patch_2">
    <path d="M 53.148438 265.709375 
L 369.813132 265.709375 
L 369.813132 49.032312 
L 53.148438 49.032312 
z
" style="fill: #fcfcfb"/>
   </g>
   <g id="matplotlib.axis_1">
    <g id="xtick_1">
     <g id="line2d_1"/>
     <g id="text_1">
      <!-- 8 -->
      <g style="fill: #52514e" transform="translate(63.111658 276.35) scale(0.1 -0.1)">
       <defs>
        <path id="HelveticaNeue-38" d="M 992 3360 
Q 992 3533 1056 3661 
Q 1120 3789 1225 3878 
Q 1331 3968 1478 4013 
Q 1626 4058 1786 4058 
Q 2118 4058 2332 3882 
Q 2547 3706 2547 3360 
Q 2547 3014 2336 2822 
Q 2125 2630 1798 2630 
Q 1632 2630 1485 2675 
Q 1338 2720 1229 2809 
Q 1120 2899 1056 3036 
Q 992 3174 992 3360 
z
M 416 3379 
Q 416 3072 589 2813 
Q 762 2554 1050 2438 
Q 666 2304 461 2006 
Q 256 1709 256 1306 
Q 256 960 374 701 
Q 493 442 701 269 
Q 909 96 1190 13 
Q 1472 -70 1798 -70 
Q 2112 -70 2387 19 
Q 2662 109 2864 285 
Q 3066 461 3184 717 
Q 3302 973 3302 1306 
Q 3302 1728 3104 2019 
Q 2906 2310 2496 2438 
Q 2784 2566 2953 2819 
Q 3123 3072 3123 3379 
Q 3123 3597 3046 3805 
Q 2970 4013 2806 4176 
Q 2643 4339 2380 4438 
Q 2118 4538 1747 4538 
Q 1485 4538 1245 4461 
Q 1005 4384 819 4237 
Q 634 4090 525 3875 
Q 416 3661 416 3379 
z
M 832 1280 
Q 832 1478 905 1638 
Q 979 1798 1110 1913 
Q 1242 2029 1418 2089 
Q 1594 2150 1792 2150 
Q 1984 2150 2153 2083 
Q 2323 2016 2451 1901 
Q 2579 1786 2652 1629 
Q 2726 1472 2726 1286 
Q 2726 1094 2659 934 
Q 2592 774 2467 656 
Q 2342 538 2172 470 
Q 2003 403 1798 403 
Q 1376 403 1104 636 
Q 832 870 832 1280 
z
" transform="scale(0.015625)"/>
       </defs>
       <use xlink:href="#HelveticaNeue-38"/>
      </g>
     </g>
    </g>
    <g id="xtick_2">
     <g id="line2d_2"/>
     <g id="text_2">
      <!-- 16 -->
      <g style="fill: #52514e" transform="translate(99.915057 276.35) scale(0.1 -0.1)">
       <defs>
        <path id="HelveticaNeue-31" d="M 2278 0 
L 2278 4538 
L 1862 4538 
Q 1818 4282 1696 4115 
Q 1574 3949 1398 3853 
Q 1222 3757 1004 3721 
Q 787 3686 557 3686 
L 557 3251 
L 1734 3251 
L 1734 0 
L 2278 0 
z
" transform="scale(0.015625)"/>
        <path id="HelveticaNeue-36" d="M 2650 3379 
L 3194 3379 
Q 3142 3942 2809 4240 
Q 2477 4538 1914 4538 
Q 1427 4538 1107 4333 
Q 787 4128 595 3789 
Q 403 3450 323 3011 
Q 243 2573 243 2106 
Q 243 1747 297 1363 
Q 352 979 518 659 
Q 685 339 992 134 
Q 1299 -70 1805 -70 
Q 2234 -70 2525 74 
Q 2816 218 2992 438 
Q 3168 659 3245 928 
Q 3322 1197 3322 1446 
Q 3322 1760 3226 2029 
Q 3130 2298 2954 2496 
Q 2778 2694 2518 2806 
Q 2259 2918 1933 2918 
Q 1562 2918 1277 2777 
Q 992 2637 800 2323 
L 787 2336 
Q 794 2598 838 2899 
Q 883 3200 1001 3459 
Q 1120 3718 1331 3888 
Q 1542 4058 1888 4058 
Q 2214 4058 2412 3872 
Q 2611 3686 2650 3379 
z
M 1830 2438 
Q 2061 2438 2233 2355 
Q 2406 2272 2521 2134 
Q 2637 1997 2691 1808 
Q 2746 1619 2746 1408 
Q 2746 1210 2685 1027 
Q 2624 845 2509 704 
Q 2394 563 2224 483 
Q 2054 403 1830 403 
Q 1606 403 1430 483 
Q 1254 563 1136 697 
Q 1018 832 954 1017 
Q 890 1203 890 1414 
Q 890 1626 950 1814 
Q 1011 2003 1132 2140 
Q 1254 2278 1427 2358 
Q 1600 2438 1830 2438 
z
" transform="scale(0.015625)"/>
       </defs>
       <use xlink:href="#HelveticaNeue-31"/>
       <use xlink:href="#HelveticaNeue-36" x="55.599991"/>
      </g>
     </g>
    </g>
    <g id="xtick_3">
     <g id="line2d_3"/>
     <g id="text_3">
      <!-- 24 -->
      <g style="fill: #52514e" transform="translate(123.069678 276.35) scale(0.1 -0.1)">
       <defs>
        <path id="HelveticaNeue-32" d="M 282 2931 
L 826 2931 
Q 819 3136 867 3337 
Q 915 3539 1024 3699 
Q 1133 3859 1302 3958 
Q 1472 4058 1709 4058 
Q 1888 4058 2048 4000 
Q 2208 3942 2326 3833 
Q 2445 3725 2515 3574 
Q 2586 3424 2586 3238 
Q 2586 3002 2512 2822 
Q 2438 2643 2294 2489 
Q 2150 2336 1932 2185 
Q 1715 2035 1427 1856 
Q 1190 1715 972 1555 
Q 755 1395 582 1184 
Q 410 973 298 688 
Q 186 403 154 0 
L 3117 0 
L 3117 480 
L 787 480 
Q 826 691 950 854 
Q 1075 1018 1251 1158 
Q 1427 1299 1638 1424 
Q 1850 1549 2061 1677 
Q 2272 1811 2470 1958 
Q 2669 2106 2822 2288 
Q 2976 2470 3069 2700 
Q 3162 2931 3162 3232 
Q 3162 3552 3050 3795 
Q 2938 4038 2746 4201 
Q 2554 4365 2294 4451 
Q 2035 4538 1741 4538 
Q 1382 4538 1100 4416 
Q 819 4294 630 4080 
Q 442 3866 352 3571 
Q 262 3277 282 2931 
z
" transform="scale(0.015625)"/>
        <path id="HelveticaNeue-34" d="M 2170 1542 
L 646 1542 
L 2157 3763 
L 2170 3763 
L 2170 1542 
z
M 2682 1542 
L 2682 4538 
L 2246 4538 
L 179 1587 
L 179 1062 
L 2170 1062 
L 2170 0 
L 2682 0 
L 2682 1062 
L 3296 1062 
L 3296 1542 
L 2682 1542 
z
" transform="scale(0.015625)"/>
       </defs>
       <use xlink:href="#HelveticaNeue-32"/>
       <use xlink:href="#HelveticaNeue-34" x="55.599991"/>
      </g>
     </g>
    </g>
    <g id="xtick_4">
     <g id="line2d_4"/>
     <g id="text_4">
      <!-- 32 -->
      <g style="fill: #52514e" transform="translate(139.498144 276.35) scale(0.1 -0.1)">
       <defs>
        <path id="HelveticaNeue-33" d="M 1395 2592 
L 1395 2131 
Q 1549 2150 1722 2150 
Q 1926 2150 2102 2096 
Q 2278 2042 2406 1930 
Q 2534 1818 2611 1654 
Q 2688 1491 2688 1280 
Q 2688 1075 2608 912 
Q 2528 749 2393 637 
Q 2259 525 2080 464 
Q 1901 403 1702 403 
Q 1235 403 992 681 
Q 749 960 736 1402 
L 192 1402 
Q 186 1050 291 774 
Q 397 499 595 310 
Q 794 122 1075 26 
Q 1357 -70 1702 -70 
Q 2022 -70 2307 16 
Q 2592 102 2803 275 
Q 3014 448 3139 707 
Q 3264 966 3264 1306 
Q 3264 1715 3062 2016 
Q 2861 2317 2445 2406 
L 2445 2419 
Q 2714 2541 2893 2777 
Q 3072 3014 3072 3322 
Q 3072 3635 2966 3865 
Q 2861 4096 2675 4243 
Q 2490 4390 2237 4464 
Q 1984 4538 1690 4538 
Q 1350 4538 1091 4429 
Q 832 4320 659 4128 
Q 486 3936 393 3667 
Q 301 3398 288 3072 
L 832 3072 
Q 832 3270 883 3449 
Q 934 3629 1040 3763 
Q 1146 3898 1309 3978 
Q 1472 4058 1690 4058 
Q 2035 4058 2265 3875 
Q 2496 3693 2496 3328 
Q 2496 3149 2425 3008 
Q 2355 2867 2236 2774 
Q 2118 2682 1961 2634 
Q 1805 2586 1632 2586 
L 1517 2586 
Q 1485 2586 1453 2586 
Q 1427 2586 1395 2592 
z
" transform="scale(0.015625)"/>
       </defs>
       <use xlink:href="#HelveticaNeue-33"/>
       <use xlink:href="#HelveticaNeue-32" x="55.599991"/>
      </g>
     </g>
    </g>
    <g id="xtick_5">
     <g id="line2d_5"/>
     <g id="text_5">
      <!-- 48 -->
      <g style="fill: #52514e" transform="translate(162.652765 276.35) scale(0.1 -0.1)">
       <use xlink:href="#HelveticaNeue-34"/>
       <use xlink:href="#HelveticaNeue-38" x="55.599991"/>
      </g>
     </g>
    </g>
    <g id="xtick_6">
     <g id="line2d_6"/>
     <g id="text_6">
      <!-- 64 -->
      <g style="fill: #52514e" transform="translate(179.081231 276.35) scale(0.1 -0.1)">
       <use xlink:href="#HelveticaNeue-36"/>
       <use xlink:href="#HelveticaNeue-34" x="55.599991"/>
      </g>
     </g>
    </g>
    <g id="xtick_7">
     <g id="line2d_7"/>
     <g id="text_7">
      <!-- 300 -->
      <g style="fill: #52514e" transform="translate(264.525067 276.35) scale(0.1 -0.1)">
       <defs>
        <path id="HelveticaNeue-30" d="M 845 2234 
Q 845 2400 848 2601 
Q 851 2803 880 3004 
Q 909 3206 963 3398 
Q 1018 3590 1123 3734 
Q 1229 3878 1389 3968 
Q 1549 4058 1779 4058 
Q 2010 4058 2170 3968 
Q 2330 3878 2435 3734 
Q 2541 3590 2595 3398 
Q 2650 3206 2678 3004 
Q 2707 2803 2710 2601 
Q 2714 2400 2714 2234 
Q 2714 1978 2698 1661 
Q 2682 1344 2595 1065 
Q 2509 787 2317 595 
Q 2125 403 1779 403 
Q 1434 403 1242 595 
Q 1050 787 963 1065 
Q 877 1344 861 1661 
Q 845 1978 845 2234 
z
M 269 2227 
Q 269 1978 281 1709 
Q 294 1440 345 1184 
Q 397 928 493 701 
Q 589 474 755 301 
Q 922 128 1174 29 
Q 1427 -70 1779 -70 
Q 2138 -70 2387 29 
Q 2637 128 2803 301 
Q 2970 474 3066 701 
Q 3162 928 3213 1184 
Q 3264 1440 3277 1709 
Q 3290 1978 3290 2227 
Q 3290 2477 3277 2745 
Q 3264 3014 3213 3270 
Q 3162 3526 3066 3756 
Q 2970 3987 2803 4160 
Q 2637 4333 2384 4435 
Q 2131 4538 1779 4538 
Q 1427 4538 1174 4435 
Q 922 4333 755 4160 
Q 589 3987 493 3756 
Q 397 3526 345 3270 
Q 294 3014 281 2745 
Q 269 2477 269 2227 
z
" transform="scale(0.015625)"/>
       </defs>
       <use xlink:href="#HelveticaNeue-33"/>
       <use xlink:href="#HelveticaNeue-30" x="55.599991"/>
       <use xlink:href="#HelveticaNeue-30" x="111.199982"/>
      </g>
     </g>
    </g>
    <g id="xtick_8">
     <g id="line2d_8"/>
     <g id="text_8">
      <!-- 512 -->
      <g style="fill: #52514e" transform="translate(295.050804 276.35) scale(0.1 -0.1)">
       <defs>
        <path id="HelveticaNeue-35" d="M 3008 3981 
L 3008 4461 
L 768 4461 
L 346 2106 
L 813 2080 
Q 973 2272 1181 2390 
Q 1389 2509 1658 2509 
Q 1888 2509 2077 2432 
Q 2266 2355 2400 2217 
Q 2534 2080 2608 1891 
Q 2682 1702 2682 1478 
Q 2682 1210 2605 1008 
Q 2528 806 2397 672 
Q 2266 538 2090 470 
Q 1914 403 1722 403 
Q 1517 403 1347 464 
Q 1178 525 1053 637 
Q 928 749 854 899 
Q 781 1050 768 1222 
L 224 1222 
Q 230 915 345 672 
Q 461 429 659 265 
Q 858 102 1117 16 
Q 1376 -70 1670 -70 
Q 2067 -70 2364 54 
Q 2662 179 2860 390 
Q 3059 602 3158 874 
Q 3258 1146 3258 1434 
Q 3258 1824 3142 2115 
Q 3027 2406 2828 2601 
Q 2630 2797 2361 2893 
Q 2093 2989 1792 2989 
Q 1562 2989 1328 2909 
Q 1094 2829 947 2662 
L 934 2675 
L 1178 3981 
L 3008 3981 
z
" transform="scale(0.015625)"/>
       </defs>
       <use xlink:href="#HelveticaNeue-35"/>
       <use xlink:href="#HelveticaNeue-31" x="55.599991"/>
       <use xlink:href="#HelveticaNeue-32" x="111.199982"/>
      </g>
     </g>
    </g>
    <g id="text_9">
     <!-- m = n  (k = 512) -->
     <g style="fill: #52514e" transform="translate(176.572191 289.629688) scale(0.1 -0.1)">
      <defs>
       <path id="HelveticaNeue-6d" d="M 410 3309 
L 410 0 
L 954 0 
L 954 2061 
Q 954 2157 1002 2301 
Q 1050 2445 1155 2579 
Q 1261 2714 1430 2810 
Q 1600 2906 1837 2906 
Q 2022 2906 2140 2851 
Q 2259 2797 2329 2697 
Q 2400 2598 2429 2464 
Q 2458 2330 2458 2170 
L 2458 0 
L 3002 0 
L 3002 2061 
Q 3002 2445 3232 2675 
Q 3462 2906 3866 2906 
Q 4064 2906 4189 2848 
Q 4314 2790 4384 2691 
Q 4454 2592 4480 2457 
Q 4506 2323 4506 2170 
L 4506 0 
L 5050 0 
L 5050 2426 
Q 5050 2682 4970 2864 
Q 4890 3046 4746 3161 
Q 4602 3277 4400 3331 
Q 4198 3386 3949 3386 
Q 3622 3386 3350 3238 
Q 3078 3091 2912 2822 
Q 2810 3130 2560 3258 
Q 2310 3386 2003 3386 
Q 1306 3386 934 2822 
L 922 2822 
L 922 3309 
L 410 3309 
z
" transform="scale(0.015625)"/>
       <path id="HelveticaNeue-20" transform="scale(0.015625)"/>
       <path id="HelveticaNeue-3d" d="M 307 1190 
L 307 755 
L 3533 755 
L 3533 1190 
L 307 1190 
z
M 3533 2048 
L 3533 2483 
L 307 2483 
L 307 2048 
L 3533 2048 
z
" transform="scale(0.015625)"/>
       <path id="HelveticaNeue-6e" d="M 410 3309 
L 410 0 
L 954 0 
L 954 1869 
Q 954 2093 1014 2281 
Q 1075 2470 1196 2611 
Q 1318 2752 1500 2829 
Q 1683 2906 1933 2906 
Q 2246 2906 2425 2726 
Q 2605 2547 2605 2240 
L 2605 0 
L 3149 0 
L 3149 2176 
Q 3149 2445 3094 2665 
Q 3040 2886 2905 3046 
Q 2771 3206 2553 3296 
Q 2336 3386 2010 3386 
Q 1274 3386 934 2784 
L 922 2784 
L 922 3309 
L 410 3309 
z
" transform="scale(0.015625)"/>
       <path id="HelveticaNeue-28" d="M 1306 -1261 
L 1722 -1261 
Q 1267 -525 1072 198 
Q 877 922 877 1728 
Q 877 2515 1069 3232 
Q 1261 3949 1722 4678 
L 1306 4678 
Q 806 4019 553 3251 
Q 301 2483 301 1728 
Q 301 1306 371 922 
Q 442 538 573 173 
Q 704 -192 889 -547 
Q 1075 -902 1306 -1261 
z
" transform="scale(0.015625)"/>
       <path id="HelveticaNeue-6b" d="M 442 4570 
L 442 0 
L 986 0 
L 986 1254 
L 1498 1728 
L 2630 0 
L 3322 0 
L 1914 2106 
L 3226 3309 
L 2496 3309 
L 986 1862 
L 986 4570 
L 442 4570 
z
" transform="scale(0.015625)"/>
       <path id="HelveticaNeue-29" d="M -58 -1261 
L 352 -1261 
Q 851 -602 1104 163 
Q 1357 928 1357 1683 
Q 1357 2106 1286 2490 
Q 1216 2874 1085 3242 
Q 954 3610 768 3965 
Q 582 4320 352 4678 
L -58 4678 
Q 390 3942 585 3216 
Q 781 2490 781 1683 
Q 781 902 589 182 
Q 397 -538 -58 -1261 
z
" transform="scale(0.015625)"/>
      </defs>
      <use xlink:href="#HelveticaNeue-6d"/>
      <use xlink:href="#HelveticaNeue-20" x="85.299988"/>
      <use xlink:href="#HelveticaNeue-3d" x="113.099976"/>
      <use xlink:href="#HelveticaNeue-20" x="173.09996"/>
      <use xlink:href="#HelveticaNeue-6e" x="200.899948"/>
      <use xlink:href="#HelveticaNeue-20" x="256.499939"/>
      <use xlink:href="#HelveticaNeue-20" x="284.299927"/>
      <use xlink:href="#HelveticaNeue-28" x="312.099915"/>
      <use xlink:href="#HelveticaNeue-6b" x="337.999908"/>
      <use xlink:href="#HelveticaNeue-20" x="389.899902"/>
      <use xlink:href="#HelveticaNeue-3d" x="417.69989"/>
      <use xlink:href="#HelveticaNeue-20" x="477.699875"/>
      <use xlink:href="#HelveticaNeue-35" x="505.499863"/>
      <use xlink:href="#HelveticaNeue-31" x="561.099854"/>
      <use xlink:href="#HelveticaNeue-32" x="616.699844"/>
      <use xlink:href="#HelveticaNeue-29" x="672.299835"/>
     </g>
    </g>
   </g>
   <g id="matplotlib.axis_2">
    <g id="ytick_1">
     <g id="line2d_9">
      <path d="M 53.148438 265.709375 
L 369.813132 265.709375 
" clip-path="url(#p96cec18a99)" style="fill: none; stroke: #e1e0d9; stroke-width: 0.8; stroke-linecap: square"/>
     </g>
     <g id="text_10">
      <!-- 0 -->
      <g style="fill: #52514e" transform="translate(40.589062 269.279688) scale(0.1 -0.1)">
       <use xlink:href="#HelveticaNeue-30"/>
      </g>
     </g>
    </g>
    <g id="ytick_2">
     <g id="line2d_10">
      <path d="M 53.148438 239.914487 
L 369.813132 239.914487 
" clip-path="url(#p96cec18a99)" style="fill: none; stroke: #e1e0d9; stroke-width: 0.8; stroke-linecap: square"/>
     </g>
     <g id="text_11">
      <!-- 250 -->
      <g style="fill: #52514e" transform="translate(29.470312 243.484799) scale(0.1 -0.1)">
       <use xlink:href="#HelveticaNeue-32"/>
       <use xlink:href="#HelveticaNeue-35" x="55.599991"/>
       <use xlink:href="#HelveticaNeue-30" x="111.199982"/>
      </g>
     </g>
    </g>
    <g id="ytick_3">
     <g id="line2d_11">
      <path d="M 53.148438 214.119598 
L 369.813132 214.119598 
" clip-path="url(#p96cec18a99)" style="fill: none; stroke: #e1e0d9; stroke-width: 0.8; stroke-linecap: square"/>
     </g>
     <g id="text_12">
      <!-- 500 -->
      <g style="fill: #52514e" transform="translate(29.470312 217.689911) scale(0.1 -0.1)">
       <use xlink:href="#HelveticaNeue-35"/>
       <use xlink:href="#HelveticaNeue-30" x="55.599991"/>
       <use xlink:href="#HelveticaNeue-30" x="111.199982"/>
      </g>
     </g>
    </g>
    <g id="ytick_4">
     <g id="line2d_12">
      <path d="M 53.148438 188.32471 
L 369.813132 188.32471 
" clip-path="url(#p96cec18a99)" style="fill: none; stroke: #e1e0d9; stroke-width: 0.8; stroke-linecap: square"/>
     </g>
     <g id="text_13">
      <!-- 750 -->
      <g style="fill: #52514e" transform="translate(29.470312 191.895022) scale(0.1 -0.1)">
       <defs>
        <path id="HelveticaNeue-37" d="M 3258 3994 
L 3258 4461 
L 320 4461 
L 320 3949 
L 2701 3949 
Q 2342 3571 2032 3123 
Q 1722 2675 1485 2172 
Q 1248 1670 1097 1123 
Q 947 576 909 0 
L 1517 0 
Q 1549 531 1696 1094 
Q 1843 1658 2076 2189 
Q 2310 2720 2611 3187 
Q 2912 3654 3258 3994 
z
" transform="scale(0.015625)"/>
       </defs>
       <use xlink:href="#HelveticaNeue-37"/>
       <use xlink:href="#HelveticaNeue-35" x="55.599991"/>
       <use xlink:href="#HelveticaNeue-30" x="111.199982"/>
      </g>
     </g>
    </g>
    <g id="ytick_5">
     <g id="line2d_13">
      <path d="M 53.148438 162.529821 
L 369.813132 162.529821 
" clip-path="url(#p96cec18a99)" style="fill: none; stroke: #e1e0d9; stroke-width: 0.8; stroke-linecap: square"/>
     </g>
     <g id="text_14">
      <!-- 1000 -->
      <g style="fill: #52514e" transform="translate(23.910937 166.100134) scale(0.1 -0.1)">
       <use xlink:href="#HelveticaNeue-31"/>
       <use xlink:href="#HelveticaNeue-30" x="55.599991"/>
       <use xlink:href="#HelveticaNeue-30" x="111.199982"/>
       <use xlink:href="#HelveticaNeue-30" x="166.799973"/>
      </g>
     </g>
    </g>
    <g id="ytick_6">
     <g id="line2d_14">
      <path d="M 53.148438 136.734933 
L 369.813132 136.734933 
" clip-path="url(#p96cec18a99)" style="fill: none; stroke: #e1e0d9; stroke-width: 0.8; stroke-linecap: square"/>
     </g>
     <g id="text_15">
      <!-- 1250 -->
      <g style="fill: #52514e" transform="translate(23.910937 140.305246) scale(0.1 -0.1)">
       <use xlink:href="#HelveticaNeue-31"/>
       <use xlink:href="#HelveticaNeue-32" x="55.599991"/>
       <use xlink:href="#HelveticaNeue-35" x="111.199982"/>
       <use xlink:href="#HelveticaNeue-30" x="166.799973"/>
      </g>
     </g>
    </g>
    <g id="ytick_7">
     <g id="line2d_15">
      <path d="M 53.148438 110.940045 
L 369.813132 110.940045 
" clip-path="url(#p96cec18a99)" style="fill: none; stroke: #e1e0d9; stroke-width: 0.8; stroke-linecap: square"/>
     </g>
     <g id="text_16">
      <!-- 1500 -->
      <g style="fill: #52514e" transform="translate(23.910937 114.510357) scale(0.1 -0.1)">
       <use xlink:href="#HelveticaNeue-31"/>
       <use xlink:href="#HelveticaNeue-35" x="55.599991"/>
       <use xlink:href="#HelveticaNeue-30" x="111.199982"/>
       <use xlink:href="#HelveticaNeue-30" x="166.799973"/>
      </g>
     </g>
    </g>
    <g id="ytick_8">
     <g id="line2d_16">
      <path d="M 53.148438 85.145156 
L 369.813132 85.145156 
" clip-path="url(#p96cec18a99)" style="fill: none; stroke: #e1e0d9; stroke-width: 0.8; stroke-linecap: square"/>
     </g>
     <g id="text_17">
      <!-- 1750 -->
      <g style="fill: #52514e" transform="translate(23.910937 88.715469) scale(0.1 -0.1)">
       <use xlink:href="#HelveticaNeue-31"/>
       <use xlink:href="#HelveticaNeue-37" x="55.599991"/>
       <use xlink:href="#HelveticaNeue-35" x="111.199982"/>
       <use xlink:href="#HelveticaNeue-30" x="166.799973"/>
      </g>
     </g>
    </g>
    <g id="ytick_9">
     <g id="line2d_17">
      <path d="M 53.148438 59.350268 
L 369.813132 59.350268 
" clip-path="url(#p96cec18a99)" style="fill: none; stroke: #e1e0d9; stroke-width: 0.8; stroke-linecap: square"/>
     </g>
     <g id="text_18">
      <!-- 2000 -->
      <g style="fill: #52514e" transform="translate(23.910937 62.92058) scale(0.1 -0.1)">
       <use xlink:href="#HelveticaNeue-32"/>
       <use xlink:href="#HelveticaNeue-30" x="55.599991"/>
       <use xlink:href="#HelveticaNeue-30" x="111.199982"/>
       <use xlink:href="#HelveticaNeue-30" x="166.799973"/>
      </g>
     </g>
    </g>
    <g id="text_19">
     <!-- GFLOPS -->
     <g style="fill: #52514e" transform="translate(17.940625 177.095844) rotate(-90) scale(0.1 -0.1)">
      <defs>
       <path id="HelveticaNeue-47" d="M 3917 570 
L 4077 0 
L 4461 0 
L 4461 2406 
L 2458 2406 
L 2458 1894 
L 3917 1894 
Q 3930 1581 3834 1309 
Q 3738 1037 3549 835 
Q 3360 634 3085 518 
Q 2810 403 2451 403 
Q 2067 403 1776 553 
Q 1485 704 1286 957 
Q 1088 1210 985 1539 
Q 883 1869 883 2227 
Q 883 2592 972 2941 
Q 1062 3290 1251 3562 
Q 1440 3834 1737 4000 
Q 2035 4166 2451 4166 
Q 2707 4166 2934 4105 
Q 3162 4045 3341 3923 
Q 3520 3802 3641 3613 
Q 3763 3424 3808 3162 
L 4416 3162 
Q 4352 3565 4176 3849 
Q 4000 4134 3741 4320 
Q 3482 4506 3152 4592 
Q 2822 4678 2451 4678 
Q 1907 4678 1500 4476 
Q 1094 4275 822 3936 
Q 550 3597 412 3145 
Q 275 2694 275 2195 
Q 275 1747 422 1331 
Q 570 915 851 595 
Q 1133 275 1536 86 
Q 1939 -102 2451 -102 
Q 2854 -102 3251 54 
Q 3648 211 3917 570 
z
" transform="scale(0.015625)"/>
       <path id="HelveticaNeue-46" d="M 499 4570 
L 499 0 
L 1107 0 
L 1107 2093 
L 3206 2093 
L 3206 2605 
L 1107 2605 
L 1107 4058 
L 3501 4058 
L 3501 4570 
L 499 4570 
z
" transform="scale(0.015625)"/>
       <path id="HelveticaNeue-4c" d="M 499 4570 
L 499 0 
L 3526 0 
L 3526 512 
L 1107 512 
L 1107 4570 
L 499 4570 
z
" transform="scale(0.015625)"/>
       <path id="HelveticaNeue-4f" d="M 851 2285 
Q 851 2630 940 2966 
Q 1030 3302 1222 3571 
Q 1414 3840 1715 4003 
Q 2016 4166 2432 4166 
Q 2848 4166 3149 4003 
Q 3450 3840 3642 3571 
Q 3834 3302 3923 2966 
Q 4013 2630 4013 2285 
Q 4013 1939 3923 1603 
Q 3834 1267 3642 998 
Q 3450 730 3149 566 
Q 2848 403 2432 403 
Q 2016 403 1715 566 
Q 1414 730 1222 998 
Q 1030 1267 940 1603 
Q 851 1939 851 2285 
z
M 243 2285 
Q 243 1818 380 1386 
Q 518 954 793 621 
Q 1069 288 1478 93 
Q 1888 -102 2432 -102 
Q 2976 -102 3385 93 
Q 3795 288 4070 621 
Q 4346 954 4483 1386 
Q 4621 1818 4621 2285 
Q 4621 2752 4483 3184 
Q 4346 3616 4070 3949 
Q 3795 4282 3385 4480 
Q 2976 4678 2432 4678 
Q 1888 4678 1478 4480 
Q 1069 4282 793 3949 
Q 518 3616 380 3184 
Q 243 2752 243 2285 
z
" transform="scale(0.015625)"/>
       <path id="HelveticaNeue-50" d="M 1107 2381 
L 1107 4058 
L 2298 4058 
Q 2816 4058 3056 3843 
Q 3296 3629 3296 3219 
Q 3296 2810 3056 2592 
Q 2816 2374 2298 2381 
L 1107 2381 
z
M 499 4570 
L 499 0 
L 1107 0 
L 1107 1869 
L 2502 1869 
Q 3194 1862 3549 2220 
Q 3904 2579 3904 3219 
Q 3904 3859 3549 4214 
Q 3194 4570 2502 4570 
L 499 4570 
z
" transform="scale(0.015625)"/>
       <path id="HelveticaNeue-53" d="M 3142 3232 
L 3718 3232 
Q 3706 3610 3574 3882 
Q 3443 4154 3216 4333 
Q 2989 4512 2688 4595 
Q 2387 4678 2035 4678 
Q 1722 4678 1424 4598 
Q 1126 4518 892 4355 
Q 659 4192 518 3939 
Q 378 3686 378 3341 
Q 378 3027 502 2819 
Q 627 2611 835 2480 
Q 1043 2349 1305 2269 
Q 1568 2189 1840 2128 
Q 2112 2067 2374 2009 
Q 2637 1952 2845 1859 
Q 3053 1766 3177 1619 
Q 3302 1472 3302 1235 
Q 3302 986 3200 826 
Q 3098 666 2931 573 
Q 2765 480 2557 441 
Q 2349 403 2144 403 
Q 1888 403 1645 467 
Q 1402 531 1219 665 
Q 1037 800 925 1008 
Q 813 1216 813 1504 
L 237 1504 
Q 237 1088 387 784 
Q 538 480 797 285 
Q 1056 90 1398 -6 
Q 1741 -102 2125 -102 
Q 2438 -102 2755 -28 
Q 3072 45 3328 208 
Q 3584 371 3747 630 
Q 3910 890 3910 1254 
Q 3910 1594 3785 1818 
Q 3661 2042 3453 2189 
Q 3245 2336 2982 2422 
Q 2720 2509 2448 2573 
Q 2176 2637 1913 2691 
Q 1651 2746 1443 2829 
Q 1235 2912 1110 3043 
Q 986 3174 986 3386 
Q 986 3610 1072 3760 
Q 1158 3910 1302 4000 
Q 1446 4090 1632 4128 
Q 1818 4166 2010 4166 
Q 2483 4166 2787 3945 
Q 3091 3725 3142 3232 
z
" transform="scale(0.015625)"/>
      </defs>
      <use xlink:href="#HelveticaNeue-47"/>
      <use xlink:href="#HelveticaNeue-46" x="75.899994"/>
      <use xlink:href="#HelveticaNeue-4c" x="133.299988"/>
      <use xlink:href="#HelveticaNeue-4f" x="188.899979"/>
      <use xlink:href="#HelveticaNeue-50" x="264.899963"/>
      <use xlink:href="#HelveticaNeue-53" x="329.699951"/>
     </g>
    </g>
   </g>
   <g id="line2d_18">
    <path d="M 65.891345 254.583936 
L 105.474432 216.489942 
L 128.629053 238.068088 
L 145.057519 73.865567 
L 168.21214 189.36899 
L 184.640606 69.362812 
L 272.864129 137.550052 
L 303.389866 76.110755 
" clip-path="url(#p96cec18a99)" style="fill: none; stroke: #2a78d6; stroke-width: 2; stroke-linecap: square"/>
    <defs>
     <path id="m49201a8d4f" d="M 0 3 
C 0.795609 3 1.55874 2.683901 2.12132 2.12132 
C 2.683901 1.55874 3 0.795609 3 0 
C 3 -0.795609 2.683901 -1.55874 2.12132 -2.12132 
C 1.55874 -2.683901 0.795609 -3 0 -3 
C -0.795609 -3 -1.55874 -2.683901 -2.12132 -2.12132 
C -2.683901 -1.55874 -3 -0.795609 -3 0 
C -3 0.795609 -2.683901 1.55874 -2.12132 2.12132 
C -1.55874 2.683901 -0.795609 3 0 3 
z
" style="stroke: #fcfcfb; stroke-width: 1.5"/>
    </defs>
    <g clip-path="url(#p96cec18a99)">
     <use xlink:href="#m49201a8d4f" x="65.891345" y="254.583936" style="fill: #2a78d6; stroke: #fcfcfb; stroke-width: 1.5"/>
     <use xlink:href="#m49201a8d4f" x="105.474432" y="216.489942" style="fill: #2a78d6; stroke: #fcfcfb; stroke-width: 1.5"/>
     <use xlink:href="#m49201a8d4f" x="128.629053" y="238.068088" style="fill: #2a78d6; stroke: #fcfcfb; stroke-width: 1.5"/>
     <use xlink:href="#m49201a8d4f" x="145.057519" y="73.865567" style="fill: #2a78d6; stroke: #fcfcfb; stroke-width: 1.5"/>
     <use xlink:href="#m49201a8d4f" x="168.21214" y="189.36899" style="fill: #2a78d6; stroke: #fcfcfb; stroke-width: 1.5"/>
     <use xlink:href="#m49201a8d4f" x="184.640606" y="69.362812" style="fill: #2a78d6; stroke: #fcfcfb; stroke-width: 1.5"/>
     <use xlink:href="#m49201a8d4f" x="272.864129" y="137.550052" style="fill: #2a78d6; stroke: #fcfcfb; stroke-width: 1.5"/>
     <use xlink:href="#m49201a8d4f" x="303.389866" y="76.110755" style="fill: #2a78d6; stroke: #fcfcfb; stroke-width: 1.5"/>
    </g>
   </g>
   <g id="line2d_19">
    <path d="M 65.891345 258.721952 
L 105.474432 237.836863 
L 128.629053 250.024019 
L 145.057519 215.994371 
L 168.21214 231.901459 
L 184.640606 215.785432 
L 272.864129 222.688351 
L 303.389866 216.384286 
" clip-path="url(#p96cec18a99)" style="fill: none; stroke: #eb6834; stroke-width: 2; stroke-linecap: square"/>
    <defs>
     <path id="m52cf79d625" d="M 0 3 
C 0.795609 3 1.55874 2.683901 2.12132 2.12132 
C 2.683901 1.55874 3 0.795609 3 0 
C 3 -0.795609 2.683901 -1.55874 2.12132 -2.12132 
C 1.55874 -2.683901 0.795609 -3 0 -3 
C -0.795609 -3 -1.55874 -2.683901 -2.12132 -2.12132 
C -2.683901 -1.55874 -3 -0.795609 -3 0 
C -3 0.795609 -2.683901 1.55874 -2.12132 2.12132 
C -1.55874 2.683901 -0.795609 3 0 3 
z
" style="stroke: #fcfcfb; stroke-width: 1.5"/>
    </defs>
    <g clip-path="url(#p96cec18a99)">
     <use xlink:href="#m52cf79d625" x="65.891345" y="258.721952" style="fill: #eb6834; stroke: #fcfcfb; stroke-width: 1.5"/>
     <use xlink:href="#m52cf79d625" x="105.474432" y="237.836863" style="fill: #eb6834; stroke: #fcfcfb; stroke-width: 1.5"/>
     <use xlink:href="#m52cf79d625" x="128.629053" y="250.024019" style="fill: #eb6834; stroke: #fcfcfb; stroke-width: 1.5"/>
     <use xlink:href="#m52cf79d625" x="145.057519" y="215.994371" style="fill: #eb6834; stroke: #fcfcfb; stroke-width: 1.5"/>
     <use xlink:href="#m52cf79d625" x="168.21214" y="231.901459" style="fill: #eb6834; stroke: #fcfcfb; stroke-width: 1.5"/>
     <use xlink:href="#m52cf79d625" x="184.640606" y="215.785432" style="fill: #eb6834; stroke: #fcfcfb; stroke-width: 1.5"/>
     <use xlink:href="#m52cf79d625" x="272.864129" y="222.688351" style="fill: #eb6834; stroke: #fcfcfb; stroke-width: 1.5"/>
     <use xlink:href="#m52cf79d625" x="303.389866" y="216.384286" style="fill: #eb6834; stroke: #fcfcfb; stroke-width: 1.5"/>
    </g>
   </g>
   <g id="line2d_20">
    <path d="M 65.891345 258.648385 
L 105.474432 239.362786 
L 128.629053 250.612349 
L 145.057519 216.851999 
L 168.21214 233.093699 
L 184.640606 216.698365 
L 272.864129 223.851906 
L 303.389866 217.449615 
" clip-path="url(#p96cec18a99)" style="fill: none; stroke: #1baf7a; stroke-width: 2; stroke-linecap: square"/>
    <defs>
     <path id="mb60bb16b18" d="M 0 3 
C 0.795609 3 1.55874 2.683901 2.12132 2.12132 
C 2.683901 1.55874 3 0.795609 3 0 
C 3 -0.795609 2.683901 -1.55874 2.12132 -2.12132 
C 1.55874 -2.683901 0.795609 -3 0 -3 
C -0.795609 -3 -1.55874 -2.683901 -2.12132 -2.12132 
C -2.683901 -1.55874 -3 -0.795609 -3 0 
C -3 0.795609 -2.683901 1.55874 -2.12132 2.12132 
C -1.55874 2.683901 -0.795609 3 0 3 
z
" style="stroke: #fcfcfb; stroke-width: 1.5"/>
    </defs>
    <g clip-path="url(#p96cec18a99)">
     <use xlink:href="#mb60bb16b18" x="65.891345" y="258.648385" style="fill: #1baf7a; stroke: #fcfcfb; stroke-width: 1.5"/>
     <use xlink:href="#mb60bb16b18" x="105.474432" y="239.362786" style="fill: #1baf7a; stroke: #fcfcfb; stroke-width: 1.5"/>
     <use xlink:href="#mb60bb16b18" x="128.629053" y="250.612349" style="fill: #1baf7a; stroke: #fcfcfb; stroke-width: 1.5"/>
     <use xlink:href="#mb60bb16b18" x="145.057519" y="216.851999" style="fill: #1baf7a; stroke: #fcfcfb; stroke-width: 1.5"/>
     <use xlink:href="#mb60bb16b18" x="168.21214" y="233.093699" style="fill: #1baf7a; stroke: #fcfcfb; stroke-width: 1.5"/>
     <use xlink:href="#mb60bb16b18" x="184.640606" y="216.698365" style="fill: #1baf7a; stroke: #fcfcfb; stroke-width: 1.5"/>
     <use xlink:href="#mb60bb16b18" x="272.864129" y="223.851906" style="fill: #1baf7a; stroke: #fcfcfb; stroke-width: 1.5"/>
     <use xlink:href="#mb60bb16b18" x="303.389866" y="217.449615" style="fill: #1baf7a; stroke: #fcfcfb; stroke-width: 1.5"/>
    </g>
   </g>
   <g id="line2d_21">
    <path d="M 65.891345 260.775102 
L 105.474432 249.199305 
L 128.629053 255.519465 
L 145.057519 234.503544 
L 168.21214 244.681898 
L 184.640606 234.414191 
L 272.864129 237.82572 
L 303.389866 234.544713 
" clip-path="url(#p96cec18a99)" style="fill: none; stroke: #eda100; stroke-width: 2; stroke-linecap: square"/>
    <defs>
     <path id="ma2c80108df" d="M 0 3 
C 0.795609 3 1.55874 2.683901 2.12132 2.12132 
C 2.683901 1.55874 3 0.795609 3 0 
C 3 -0.795609 2.683901 -1.55874 2.12132 -2.12132 
C 1.55874 -2.683901 0.795609 -3 0 -3 
C -0.795609 -3 -1.55874 -2.683901 -2.12132 -2.12132 
C -2.683901 -1.55874 -3 -0.795609 -3 0 
C -3 0.795609 -2.683901 1.55874 -2.12132 2.12132 
C -1.55874 2.683901 -0.795609 3 0 3 
z
" style="stroke: #fcfcfb; stroke-width: 1.5"/>
    </defs>
    <g clip-path="url(#p96cec18a99)">
     <use xlink:href="#ma2c80108df" x="65.891345" y="260.775102" style="fill: #eda100; stroke: #fcfcfb; stroke-width: 1.5"/>
     <use xlink:href="#ma2c80108df" x="105.474432" y="249.199305" style="fill: #eda100; stroke: #fcfcfb; stroke-width: 1.5"/>
     <use xlink:href="#ma2c80108df" x="128.629053" y="255.519465" style="fill: #eda100; stroke: #fcfcfb; stroke-width: 1.5"/>
     <use xlink:href="#ma2c80108df" x="145.057519" y="234.503544" style="fill: #eda100; stroke: #fcfcfb; stroke-width: 1.5"/>
     <use xlink:href="#ma2c80108df" x="168.21214" y="244.681898" style="fill: #eda100; stroke: #fcfcfb; stroke-width: 1.5"/>
     <use xlink:href="#ma2c80108df" x="184.640606" y="234.414191" style="fill: #eda100; stroke: #fcfcfb; stroke-width: 1.5"/>
     <use xlink:href="#ma2c80108df" x="272.864129" y="237.82572" style="fill: #eda100; stroke: #fcfcfb; stroke-width: 1.5"/>
     <use xlink:href="#ma2c80108df" x="303.389866" y="234.544713" style="fill: #eda100; stroke: #fcfcfb; stroke-width: 1.5"/>
    </g>
   </g>
   <g id="patch_3">
    <path d="M 53.148438 265.709375 
L 369.813132 265.709375 
" style="fill: none; stroke: #c3c2b7; stroke-width: 0.8; stroke-linejoin: miter; stroke-linecap: square"/>
   </g>
   <g id="text_20">
    <!-- A col, B row -->
    <g style="fill: #52514e" transform="translate(311.389866 78.437395) scale(0.09 -0.09)">
     <defs>
      <path id="HelveticaNeue-41" d="M 1286 1888 
L 2061 4019 
L 2074 4019 
L 2835 1888 
L 1286 1888 
z
M 1741 4570 
L -38 0 
L 582 0 
L 1094 1376 
L 3027 1376 
L 3526 0 
L 4198 0 
L 2413 4570 
L 1741 4570 
z
" transform="scale(0.015625)"/>
      <path id="HelveticaNeue-63" d="M 2656 2246 
L 3219 2246 
Q 3187 2541 3065 2755 
Q 2944 2970 2755 3110 
Q 2566 3251 2320 3318 
Q 2074 3386 1792 3386 
Q 1402 3386 1107 3248 
Q 813 3110 617 2870 
Q 422 2630 326 2307 
Q 230 1984 230 1613 
Q 230 1242 329 931 
Q 429 621 624 397 
Q 819 173 1110 51 
Q 1402 -70 1779 -70 
Q 2413 -70 2781 262 
Q 3149 595 3238 1210 
L 2682 1210 
Q 2630 826 2403 614 
Q 2176 403 1773 403 
Q 1517 403 1331 505 
Q 1146 608 1030 777 
Q 915 947 860 1164 
Q 806 1382 806 1613 
Q 806 1862 857 2096 
Q 909 2330 1027 2509 
Q 1146 2688 1344 2797 
Q 1542 2906 1837 2906 
Q 2182 2906 2387 2733 
Q 2592 2560 2656 2246 
z
" transform="scale(0.015625)"/>
      <path id="HelveticaNeue-6f" d="M 806 1651 
Q 806 1952 886 2185 
Q 966 2419 1107 2579 
Q 1248 2739 1437 2822 
Q 1626 2906 1837 2906 
Q 2048 2906 2237 2822 
Q 2426 2739 2566 2579 
Q 2707 2419 2787 2185 
Q 2867 1952 2867 1651 
Q 2867 1350 2787 1116 
Q 2707 883 2566 726 
Q 2426 570 2237 486 
Q 2048 403 1837 403 
Q 1626 403 1437 486 
Q 1248 570 1107 726 
Q 966 883 886 1116 
Q 806 1350 806 1651 
z
M 230 1651 
Q 230 1286 332 972 
Q 435 659 640 425 
Q 845 192 1145 61 
Q 1446 -70 1837 -70 
Q 2234 -70 2531 61 
Q 2829 192 3033 425 
Q 3238 659 3340 972 
Q 3443 1286 3443 1651 
Q 3443 2016 3340 2333 
Q 3238 2650 3033 2883 
Q 2829 3117 2531 3251 
Q 2234 3386 1837 3386 
Q 1446 3386 1145 3251 
Q 845 3117 640 2883 
Q 435 2650 332 2333 
Q 230 2016 230 1651 
z
" transform="scale(0.015625)"/>
      <path id="HelveticaNeue-6c" d="M 442 4570 
L 442 0 
L 986 0 
L 986 4570 
L 442 4570 
z
" transform="scale(0.015625)"/>
      <path id="HelveticaNeue-2c" d="M 531 710 
L 531 0 
L 909 0 
Q 915 -77 899 -166 
Q 883 -256 838 -342 
Q 794 -429 720 -502 
Q 646 -576 538 -614 
L 538 -934 
Q 909 -826 1075 -563 
Q 1242 -301 1242 64 
L 1242 710 
L 531 710 
z
" transform="scale(0.015625)"/>
      <path id="HelveticaNeue-42" d="M 1107 2605 
L 1107 4058 
L 2323 4058 
Q 2522 4058 2698 4035 
Q 2874 4013 3008 3936 
Q 3142 3859 3219 3718 
Q 3296 3578 3296 3334 
Q 3296 2970 3069 2787 
Q 2842 2605 2323 2605 
L 1107 2605 
z
M 499 4570 
L 499 0 
L 2707 0 
Q 3046 0 3305 112 
Q 3565 224 3741 406 
Q 3917 589 4006 825 
Q 4096 1062 4096 1312 
Q 4096 1734 3872 2028 
Q 3648 2323 3226 2413 
L 3226 2426 
Q 3552 2554 3728 2819 
Q 3904 3085 3904 3450 
Q 3904 3795 3747 4032 
Q 3590 4269 3366 4403 
Q 3264 4467 3120 4499 
Q 2976 4531 2809 4547 
Q 2643 4563 2473 4566 
Q 2304 4570 2157 4570 
L 499 4570 
z
M 1107 512 
L 1107 2093 
L 2496 2093 
Q 2688 2093 2867 2057 
Q 3046 2022 3184 1936 
Q 3322 1850 3405 1702 
Q 3488 1555 3488 1331 
Q 3488 947 3261 729 
Q 3034 512 2630 512 
L 1107 512 
z
" transform="scale(0.015625)"/>
      <path id="HelveticaNeue-72" d="M 390 3309 
L 390 0 
L 934 0 
L 934 1472 
Q 934 1792 998 2038 
Q 1062 2285 1203 2457 
Q 1344 2630 1574 2720 
Q 1805 2810 2131 2810 
L 2131 3386 
Q 1690 3398 1402 3206 
Q 1114 3014 915 2611 
L 902 2611 
L 902 3309 
L 390 3309 
z
" transform="scale(0.015625)"/>
      <path id="HelveticaNeue-77" d="M 3686 0 
L 4742 3309 
L 4179 3309 
L 3437 602 
L 3424 602 
L 2733 3309 
L 2138 3309 
L 1472 602 
L 1459 602 
L 710 3309 
L 109 3309 
L 1171 0 
L 1760 0 
L 2426 2630 
L 2438 2630 
L 3110 0 
L 3686 0 
z
" transform="scale(0.015625)"/>
     </defs>
     <use xlink:href="#HelveticaNeue-41"/>
     <use xlink:href="#HelveticaNeue-20" x="64.799988"/>
     <use xlink:href="#HelveticaNeue-63" x="92.599976"/>
     <use xlink:href="#HelveticaNeue-6f" x="146.299973"/>
     <use xlink:href="#HelveticaNeue-6c" x="203.699966"/>
     <use xlink:href="#HelveticaNeue-2c" x="225.899963"/>
     <use xlink:href="#HelveticaNeue-20" x="253.699951"/>
     <use xlink:href="#HelveticaNeue-42" x="281.499939"/>
     <use xlink:href="#HelveticaNeue-20" x="349.999924"/>
     <use xlink:href="#HelveticaNeue-72" x="377.799911"/>
     <use xlink:href="#HelveticaNeue-6f" x="409.349899"/>
     <use xlink:href="#HelveticaNeue-77" x="466.749893"/>
    </g>
   </g>
   <g id="text_21">
    <!-- A col, B col -->
    <g style="fill: #52514e" transform="translate(311.389866 208.426505) scale(0.09 -0.09)">
     <use xlink:href="#HelveticaNeue-41"/>
     <use xlink:href="#HelveticaNeue-20" x="64.799988"/>
     <use xlink:href="#HelveticaNeue-63" x="92.599976"/>
     <use xlink:href="#HelveticaNeue-6f" x="146.299973"/>
     <use xlink:href="#HelveticaNeue-6c" x="203.699966"/>
     <use xlink:href="#HelveticaNeue-2c" x="225.899963"/>
     <use xlink:href="#HelveticaNeue-20" x="253.699951"/>
     <use xlink:href="#HelveticaNeue-42" x="281.499939"/>
     <use xlink:href="#HelveticaNeue-20" x="349.999924"/>
     <use xlink:href="#HelveticaNeue-63" x="377.799911"/>
     <use xlink:href="#HelveticaNeue-6f" x="431.499908"/>
     <use xlink:href="#HelveticaNeue-6c" x="488.899902"/>
    </g>
   </g>
   <g id="text_22">
    <!-- A row, B row -->
    <g style="fill: #52514e" transform="translate(311.389866 219.776256) scale(0.09 -0.09)">
     <use xlink:href="#HelveticaNeue-41"/>
     <use xlink:href="#HelveticaNeue-20" x="64.799988"/>
     <use xlink:href="#HelveticaNeue-72" x="92.599976"/>
     <use xlink:href="#HelveticaNeue-6f" x="124.149963"/>
     <use xlink:href="#HelveticaNeue-77" x="181.549957"/>
     <use xlink:href="#HelveticaNeue-2c" x="251.849945"/>
     <use xlink:href="#HelveticaNeue-20" x="279.649933"/>
     <use xlink:href="#HelveticaNeue-42" x="307.449921"/>
     <use xlink:href="#HelveticaNeue-20" x="375.949905"/>
     <use xlink:href="#HelveticaNeue-72" x="403.749893"/>
     <use xlink:href="#HelveticaNeue-6f" x="435.299881"/>
     <use xlink:href="#HelveticaNeue-77" x="492.699875"/>
    </g>
   </g>
   <g id="text_23">
    <!-- A row, B col -->
    <g style="fill: #52514e" transform="translate(311.389866 236.871354) scale(0.09 -0.09)">
     <use xlink:href="#HelveticaNeue-41"/>
     <use xlink:href="#HelveticaNeue-20" x="64.799988"/>
     <use xlink:href="#HelveticaNeue-72" x="92.599976"/>
     <use xlink:href="#HelveticaNeue-6f" x="124.149963"/>
     <use xlink:href="#HelveticaNeue-77" x="181.549957"/>
     <use xlink:href="#HelveticaNeue-2c" x="251.849945"/>
     <use xlink:href="#HelveticaNeue-20" x="279.649933"/>
     <use xlink:href="#HelveticaNeue-42" x="307.449921"/>
     <use xlink:href="#HelveticaNeue-20" x="375.949905"/>
     <use xlink:href="#HelveticaNeue-63" x="403.749893"/>
     <use xlink:href="#HelveticaNeue-6f" x="457.44989"/>
     <use xlink:href="#HelveticaNeue-6c" x="514.849884"/>
    </g>
   </g>
   <g id="text_24">
    <!-- C column-major -->
    <g style="fill: #0b0b0b" transform="translate(53.148438 43.032312) scale(0.11 -0.11)">
     <defs>
      <path id="HelveticaNeue-43" d="M 3712 3194 
L 4320 3194 
Q 4269 3558 4102 3836 
Q 3936 4115 3686 4300 
Q 3437 4486 3117 4582 
Q 2797 4678 2438 4678 
Q 1914 4678 1507 4489 
Q 1101 4301 829 3974 
Q 557 3648 416 3209 
Q 275 2771 275 2272 
Q 275 1773 406 1337 
Q 538 902 800 582 
Q 1062 262 1459 80 
Q 1856 -102 2387 -102 
Q 3264 -102 3769 378 
Q 4275 858 4365 1722 
L 3757 1722 
Q 3738 1440 3642 1197 
Q 3546 954 3376 778 
Q 3206 602 2972 502 
Q 2739 403 2438 403 
Q 2029 403 1734 556 
Q 1440 710 1251 969 
Q 1062 1229 972 1577 
Q 883 1926 883 2317 
Q 883 2675 972 3008 
Q 1062 3341 1251 3600 
Q 1440 3859 1731 4012 
Q 2022 4166 2432 4166 
Q 2912 4166 3261 3923 
Q 3610 3680 3712 3194 
z
" transform="scale(0.015625)"/>
      <path id="HelveticaNeue-75" d="M 3149 0 
L 3149 3309 
L 2605 3309 
L 2605 1440 
Q 2605 1216 2544 1027 
Q 2483 838 2361 697 
Q 2240 557 2057 480 
Q 1875 403 1626 403 
Q 1312 403 1133 582 
Q 954 762 954 1069 
L 954 3309 
L 410 3309 
L 410 1133 
Q 410 864 464 643 
Q 518 422 652 262 
Q 787 102 1004 16 
Q 1222 -70 1549 -70 
Q 1914 -70 2182 74 
Q 2451 218 2624 525 
L 2637 525 
L 2637 0 
L 3149 0 
z
" transform="scale(0.015625)"/>
      <path id="HelveticaNeue-2d" d="M 320 2035 
L 320 1523 
L 2170 1523 
L 2170 2035 
L 320 2035 
z
" transform="scale(0.015625)"/>
      <path id="HelveticaNeue-61" d="M 3341 13 
Q 3200 -70 2950 -70 
Q 2739 -70 2614 48 
Q 2490 166 2490 435 
Q 2266 166 1968 48 
Q 1670 -70 1325 -70 
Q 1101 -70 899 -19 
Q 698 32 550 141 
Q 403 250 316 426 
Q 230 602 230 851 
Q 230 1133 326 1312 
Q 422 1491 579 1603 
Q 736 1715 937 1772 
Q 1139 1830 1350 1869 
Q 1574 1914 1776 1936 
Q 1978 1958 2131 2000 
Q 2285 2042 2374 2122 
Q 2464 2202 2464 2355 
Q 2464 2534 2397 2643 
Q 2330 2752 2224 2809 
Q 2118 2867 1987 2886 
Q 1856 2906 1728 2906 
Q 1382 2906 1152 2774 
Q 922 2643 902 2278 
L 358 2278 
Q 371 2586 486 2797 
Q 602 3008 794 3139 
Q 986 3270 1232 3328 
Q 1478 3386 1760 3386 
Q 1984 3386 2205 3354 
Q 2426 3322 2605 3222 
Q 2784 3123 2893 2944 
Q 3002 2765 3002 2477 
L 3002 774 
Q 3002 582 3024 492 
Q 3046 403 3174 403 
Q 3245 403 3341 435 
L 3341 13 
z
M 2458 1709 
Q 2355 1632 2188 1597 
Q 2022 1562 1840 1539 
Q 1658 1517 1472 1488 
Q 1286 1459 1139 1395 
Q 992 1331 899 1212 
Q 806 1094 806 890 
Q 806 755 860 662 
Q 915 570 1001 512 
Q 1088 454 1203 428 
Q 1318 403 1446 403 
Q 1715 403 1907 476 
Q 2099 550 2220 662 
Q 2342 774 2400 905 
Q 2458 1037 2458 1152 
L 2458 1709 
z
" transform="scale(0.015625)"/>
      <path id="HelveticaNeue-6a" d="M 986 3904 
L 986 4570 
L 442 4570 
L 442 3904 
L 986 3904 
z
M 986 -416 
L 986 3309 
L 442 3309 
L 442 -326 
Q 442 -582 378 -681 
Q 314 -781 134 -781 
L 19 -781 
Q -6 -781 -28 -777 
Q -51 -774 -83 -768 
L -83 -1235 
Q 45 -1261 192 -1261 
Q 557 -1261 771 -1059 
Q 986 -858 986 -416 
z
" transform="scale(0.015625)"/>
     </defs>
     <use xlink:href="#HelveticaNeue-43"/>
     <use xlink:href="#HelveticaNeue-20" x="72.199982"/>
     <use xlink:href="#HelveticaNeue-63" x="99.999969"/>
     <use xlink:href="#HelveticaNeue-6f" x="153.699966"/>
     <use xlink:href="#HelveticaNeue-6c" x="211.09996"/>
     <use xlink:href="#HelveticaNeue-75" x="233.299957"/>
     <use xlink:href="#HelveticaNeue-6d" x="288.899948"/>
     <use xlink:href="#HelveticaNeue-6e" x="374.199936"/>
     <use xlink:href="#HelveticaNeue-2d" x="429.799927"/>
     <use xlink:href="#HelveticaNeue-6d" x="468.699921"/>
     <use xlink:href="#HelveticaNeue-61" x="553.999908"/>
     <use xlink:href="#HelveticaNeue-6a" x="607.699905"/>
     <use xlink:href="#HelveticaNeue-6f" x="629.899902"/>
     <use xlink:href="#HelveticaNeue-72" x="687.299896"/>
    </g>
   </g>
  </g>
  <g id="axes_2">
   <g id="patch_4">
    <path d="M 386.574219 265.709375 
L 703.238913 265.709375 
L 703.238913 49.032312 
L 386.574219 49.032312 
z
" style="fill: #fcfcfb"/>
   </g>
   <g id="matplotlib.axis_3">
    <g id="xtick_9">
     <g id="line2d_22"/>
     <g id="text_25">
      <!-- 8 -->
      <g style="fill: #52514e" transform="translate(396.537439 276.35) scale(0.1 -0.1)">
       <use xlink:href="#HelveticaNeue-38"/>
      </g>
     </g>
    </g>
    <g id="xtick_10">
     <g id="line2d_23"/>
     <g id="text_26">
      <!-- 16 -->
      <g style="fill: #52514e" transform="translate(433.340838 276.35) scale(0.1 -0.1)">
       <use xlink:href="#HelveticaNeue-31"/>
       <use xlink:href="#HelveticaNeue-36" x="55.599991"/>
      </g>
     </g>
    </g>
    <g id="xtick_11">
     <g id="line2d_24"/>
     <g id="text_27">
      <!-- 24 -->
      <g style="fill: #52514e" transform="translate(456.49546 276.35) scale(0.1 -0.1)">
       <use xlink:href="#HelveticaNeue-32"/>
       <use xlink:href="#HelveticaNeue-34" x="55.599991"/>
      </g>
     </g>
    </g>
    <g id="xtick_12">
     <g id="line2d_25"/>
     <g id="text_28">
      <!-- 32 -->
      <g style="fill: #52514e" transform="translate(472.923925 276.35) scale(0.1 -0.1)">
       <use xlink:href="#HelveticaNeue-33"/>
       <use xlink:href="#HelveticaNeue-32" x="55.599991"/>
      </g>
     </g>
    </g>
    <g id="xtick_13">
     <g id="line2d_26"/>
     <g id="text_29">
      <!-- 48 -->
      <g style="fill: #52514e" transform="translate(496.078547 276.35) scale(0.1 -0.1)">
       <use xlink:href="#HelveticaNeue-34"/>
       <use xlink:href="#HelveticaNeue-38" x="55.599991"/>
      </g>
     </g>
    </g>
    <g id="xtick_14">
     <g id="line2d_27"/>
     <g id="text_30">
      <!-- 64 -->
      <g style="fill: #52514e" transform="translate(512.507012 276.35) scale(0.1 -0.1)">
       <use xlink:href="#HelveticaNeue-36"/>
       <use xlink:href="#HelveticaNeue-34" x="55.599991"/>
      </g>
     </g>
    </g>
    <g id="xtick_15">
     <g id="line2d_28"/>
     <g id="text_31">
      <!-- 300 -->
      <g style="fill: #52514e" transform="translate(597.950848 276.35) scale(0.1 -0.1)">
       <use xlink:href="#HelveticaNeue-33"/>
       <use xlink:href="#HelveticaNeue-30" x="55.599991"/>
       <use xlink:href="#HelveticaNeue-30" x="111.199982"/>
      </g>
     </g>
    </g>
    <g id="xtick_16">
     <g id="line2d_29"/>
     <g id="text_32">
      <!-- 512 -->
      <g style="fill: #52514e" transform="translate(628.476585 276.35) scale(0.1 -0.1)">
       <use xlink:href="#HelveticaNeue-35"/>
       <use xlink:href="#HelveticaNeue-31" x="55.599991"/>
       <use xlink:href="#HelveticaNeue-32" x="111.199982"/>
      </g>
     </g>
    </g>
    <g id="text_33">
     <!-- m = n  (k = 512) -->
     <g style="fill: #52514e" transform="translate(509.997972 289.629688) scale(0.1 -0.1)">
      <use xlink:href="#HelveticaNeue-6d"/>
      <use xlink:href="#HelveticaNeue-20" x="85.299988"/>
      <use xlink:href="#HelveticaNeue-3d" x="113.099976"/>
      <use xlink:href="#HelveticaNeue-20" x="173.09996"/>
      <use xlink:href="#HelveticaNeue-6e" x="200.899948"/>
      <use xlink:href="#HelveticaNeue-20" x="256.499939"/>
      <use xlink:href="#HelveticaNeue-20" x="284.299927"/>
      <use xlink:href="#HelveticaNeue-28" x="312.099915"/>
      <use xlink:href="#HelveticaNeue-6b" x="337.999908"/>
      <use xlink:href="#HelveticaNeue-20" x="389.899902"/>
      <use xlink:href="#HelveticaNeue-3d" x="417.69989"/>
      <use xlink:href="#HelveticaNeue-20" x="477.699875"/>
      <use xlink:href="#HelveticaNeue-35" x="505.499863"/>
      <use xlink:href="#HelveticaNeue-31" x="561.099854"/>
      <use xlink:href="#HelveticaNeue-32" x="616.699844"/>
      <use xlink:href="#HelveticaNeue-29" x="672.299835"/>
     </g>
    </g>
   </g>
   <g id="matplotlib.axis_4">
    <g id="ytick_10">
     <g id="line2d_30">
      <path d="M 386.574219 265.709375 
L 703.238913 265.709375 
" clip-path="url(#p0e8aff8102)" style="fill: none; stroke: #e1e0d9; stroke-width: 0.8; stroke-linecap: square"/>
     </g>
    </g>
    <g id="ytick_11">
     <g id="line2d_31">
      <path d="M 386.574219 239.914487 
L 703.238913 239.914487 
" clip-path="url(#p0e8aff8102)" style="fill: none; stroke: #e1e0d9; stroke-width: 0.8; stroke-linecap: square"/>
     </g>
    </g>
    <g id="ytick_12">
     <g id="line2d_32">
      <path d="M 386.574219 214.119598 
L 703.238913 214.119598 
" clip-path="url(#p0e8aff8102)" style="fill: none; stroke: #e1e0d9; stroke-width: 0.8; stroke-linecap: square"/>
     </g>
    </g>
    <g id="ytick_13">
     <g id="line2d_33">
      <path d="M 386.574219 188.32471 
L 703.238913 188.32471 
" clip-path="url(#p0e8aff8102)" style="fill: none; stroke: #e1e0d9; stroke-width: 0.8; stroke-linecap: square"/>
     </g>
    </g>
    <g id="ytick_14">
     <g id="line2d_34">
      <path d="M 386.574219 162.529821 
L 703.238913 162.529821 
" clip-path="url(#p0e8aff8102)" style="fill: none; stroke: #e1e0d9; stroke-width: 0.8; stroke-linecap: square"/>
     </g>
    </g>
    <g id="ytick_15">
     <g id="line2d_35">
      <path d="M 386.574219 136.734933 
L 703.238913 136.734933 
" clip-path="url(#p0e8aff8102)" style="fill: none; stroke: #e1e0d9; stroke-width: 0.8; stroke-linecap: square"/>
     </g>
    </g>
    <g id="ytick_16">
     <g id="line2d_36">
      <path d="M 386.574219 110.940045 
L 703.238913 110.940045 
" clip-path="url(#p0e8aff8102)" style="fill: none; stroke: #e1e0d9; stroke-width: 0.8; stroke-linecap: square"/>
     </g>
    </g>
    <g id="ytick_17">
     <g id="line2d_37">
      <path d="M 386.574219 85.145156 
L 703.238913 85.145156 
" clip-path="url(#p0e8aff8102)" style="fill: none; stroke: #e1e0d9; stroke-width: 0.8; stroke-linecap: square"/>
     </g>
    </g>
    <g id="ytick_18">
     <g id="line2d_38">
      <path d="M 386.574219 59.350268 
L 703.238913 59.350268 
" clip-path="url(#p0e8aff8102)" style="fill: none; stroke: #e1e0d9; stroke-width: 0.8; stroke-linecap: square"/>
     </g>
    </g>
   </g>
   <g id="line2d_39">
    <path d="M 399.317126 254.58404 
L 438.900213 216.648839 
L 462.054835 236.85057 
L 478.4833 73.939857 
L 501.637922 189.226602 
L 518.066387 69.423688 
L 606.289911 121.912158 
L 636.815647 78.805804 
" clip-path="url(#p0e8aff8102)" style="fill: none; stroke: #2a78d6; stroke-width: 2; stroke-linecap: square"/>
    <g clip-path="url(#p0e8aff8102)">
     <use xlink:href="#m49201a8d4f" x="399.317126" y="254.58404" style="fill: #2a78d6; stroke: #fcfcfb; stroke-width: 1.5"/>
     <use xlink:href="#m49201a8d4f" x="438.900213" y="216.648839" style="fill: #2a78d6; stroke: #fcfcfb; stroke-width: 1.5"/>
     <use xlink:href="#m49201a8d4f" x="462.054835" y="236.85057" style="fill: #2a78d6; stroke: #fcfcfb; stroke-width: 1.5"/>
     <use xlink:href="#m49201a8d4f" x="478.4833" y="73.939857" style="fill: #2a78d6; stroke: #fcfcfb; stroke-width: 1.5"/>
     <use xlink:href="#m49201a8d4f" x="501.637922" y="189.226602" style="fill: #2a78d6; stroke: #fcfcfb; stroke-width: 1.5"/>
     <use xlink:href="#m49201a8d4f" x="518.066387" y="69.423688" style="fill: #2a78d6; stroke: #fcfcfb; stroke-width: 1.5"/>
     <use xlink:href="#m49201a8d4f" x="606.289911" y="121.912158" style="fill: #2a78d6; stroke: #fcfcfb; stroke-width: 1.5"/>
     <use xlink:href="#m49201a8d4f" x="636.815647" y="78.805804" style="fill: #2a78d6; stroke: #fcfcfb; stroke-width: 1.5"/>
    </g>
   </g>
   <g id="line2d_40">
    <path d="M 399.317126 258.724811 
L 438.900213 237.853578 
L 462.054835 249.881219 
L 478.4833 215.877365 
L 501.637922 231.908785 
L 518.066387 215.731366 
L 606.289911 222.219606 
L 636.815647 216.519967 
" clip-path="url(#p0e8aff8102)" style="fill: none; stroke: #eb6834; stroke-width: 2; stroke-linecap: square"/>
    <g clip-path="url(#p0e8aff8102)">
     <use xlink:href="#m52cf79d625" x="399.317126" y="258.724811" style="fill: #eb6834; stroke: #fcfcfb; stroke-width: 1.5"/>
     <use xlink:href="#m52cf79d625" x="438.900213" y="237.853578" style="fill: #eb6834; stroke: #fcfcfb; stroke-width: 1.5"/>
     <use xlink:href="#m52cf79d625" x="462.054835" y="249.881219" style="fill: #eb6834; stroke: #fcfcfb; stroke-width: 1.5"/>
     <use xlink:href="#m52cf79d625" x="478.4833" y="215.877365" style="fill: #eb6834; stroke: #fcfcfb; stroke-width: 1.5"/>
     <use xlink:href="#m52cf79d625" x="501.637922" y="231.908785" style="fill: #eb6834; stroke: #fcfcfb; stroke-width: 1.5"/>
     <use xlink:href="#m52cf79d625" x="518.066387" y="215.731366" style="fill: #eb6834; stroke: #fcfcfb; stroke-width: 1.5"/>
     <use xlink:href="#m52cf79d625" x="606.289911" y="222.219606" style="fill: #eb6834; stroke: #fcfcfb; stroke-width: 1.5"/>
     <use xlink:href="#m52cf79d625" x="636.815647" y="216.519967" style="fill: #eb6834; stroke: #fcfcfb; stroke-width: 1.5"/>
    </g>
   </g>
   <g id="line2d_41">
    <path d="M 399.317126 258.647426 
L 438.900213 239.456163 
L 462.054835 250.618437 
L 478.4833 216.873564 
L 501.637922 233.102985 
L 518.066387 216.904414 
L 606.289911 223.458792 
L 636.815647 217.636783 
" clip-path="url(#p0e8aff8102)" style="fill: none; stroke: #1baf7a; stroke-width: 2; stroke-linecap: square"/>
    <g clip-path="url(#p0e8aff8102)">
     <use xlink:href="#mb60bb16b18" x="399.317126" y="258.647426" style="fill: #1baf7a; stroke: #fcfcfb; stroke-width: 1.5"/>
     <use xlink:href="#mb60bb16b18" x="438.900213" y="239.456163" style="fill: #1baf7a; stroke: #fcfcfb; stroke-width: 1.5"/>
     <use xlink:href="#mb60bb16b18" x="462.054835" y="250.618437" style="fill: #1baf7a; stroke: #fcfcfb; stroke-width: 1.5"/>
     <use xlink:href="#mb60bb16b18" x="478.4833" y="216.873564" style="fill: #1baf7a; stroke: #fcfcfb; stroke-width: 1.5"/>
     <use xlink:href="#mb60bb16b18" x="501.637922" y="233.102985" style="fill: #1baf7a; stroke: #fcfcfb; stroke-width: 1.5"/>
     <use xlink:href="#mb60bb16b18" x="518.066387" y="216.904414" style="fill: #1baf7a; stroke: #fcfcfb; stroke-width: 1.5"/>
     <use xlink:href="#mb60bb16b18" x="606.289911" y="223.458792" style="fill: #1baf7a; stroke: #fcfcfb; stroke-width: 1.5"/>
     <use xlink:href="#mb60bb16b18" x="636.815647" y="217.636783" style="fill: #1baf7a; stroke: #fcfcfb; stroke-width: 1.5"/>
    </g>
   </g>
   <g id="line2d_42">
    <path d="M 399.317126 260.771243 
L 438.900213 249.157311 
L 462.054835 255.517484 
L 478.4833 234.525006 
L 501.637922 244.66962 
L 518.066387 234.427192 
L 606.289911 237.702317 
L 636.815647 234.599398 
" clip-path="url(#p0e8aff8102)" style="fill: none; stroke: #eda100; stroke-width: 2; stroke-linecap: square"/>
    <g clip-path="url(#p0e8aff8102)">
     <use xlink:href="#ma2c80108df" x="399.317126" y="260.771243" style="fill: #eda100; stroke: #fcfcfb; stroke-width: 1.5"/>
     <use xlink:href="#ma2c80108df" x="438.900213" y="249.157311" style="fill: #eda100; stroke: #fcfcfb; stroke-width: 1.5"/>
     <use xlink:href="#ma2c80108df" x="462.054835" y="255.517484" style="fill: #eda100; stroke: #fcfcfb; stroke-width: 1.5"/>
     <use xlink:href="#ma2c80108df" x="478.4833" y="234.525006" style="fill: #eda100; stroke: #fcfcfb; stroke-width: 1.5"/>
     <use xlink:href="#ma2c80108df" x="501.637922" y="244.66962" style="fill: #eda100; stroke: #fcfcfb; stroke-width: 1.5"/>
     <use xlink:href="#ma2c80108df" x="518.066387" y="234.427192" style="fill: #eda100; stroke: #fcfcfb; stroke-width: 1.5"/>
     <use xlink:href="#ma2c80108df" x="606.289911" y="237.702317" style="fill: #eda100; stroke: #fcfcfb; stroke-width: 1.5"/>
     <use xlink:href="#ma2c80108df" x="636.815647" y="234.599398" style="fill: #eda100; stroke: #fcfcfb; stroke-width: 1.5"/>
    </g>
   </g>
   <g id="patch_5">
    <path d="M 386.574219 265.709375 
L 703.238913 265.709375 
" style="fill: none; stroke: #c3c2b7; stroke-width: 0.8; stroke-linejoin: miter; stroke-linecap: square"/>
   </g>
   <g id="text_34">
    <!-- A col, B row -->
    <g style="fill: #52514e" transform="translate(644.815647 81.132445) scale(0.09 -0.09)">
     <use xlink:href="#HelveticaNeue-41"/>
     <use xlink:href="#HelveticaNeue-20" x="64.799988"/>
     <use xlink:href="#HelveticaNeue-63" x="92.599976"/>
     <use xlink:href="#HelveticaNeue-6f" x="146.299973"/>
     <use xlink:href="#HelveticaNeue-6c" x="203.699966"/>
     <use xlink:href="#HelveticaNeue-2c" x="225.899963"/>
     <use xlink:href="#HelveticaNeue-20" x="253.699951"/>
     <use xlink:href="#HelveticaNeue-42" x="281.499939"/>
     <use xlink:href="#HelveticaNeue-20" x="349.999924"/>
     <use xlink:href="#HelveticaNeue-72" x="377.799911"/>
     <use xlink:href="#HelveticaNeue-6f" x="409.349899"/>
     <use xlink:href="#HelveticaNeue-77" x="466.749893"/>
    </g>
   </g>
   <g id="text_35">
    <!-- A col, B col -->
    <g style="fill: #52514e" transform="translate(644.815647 208.613673) scale(0.09 -0.09)">
     <use xlink:href="#HelveticaNeue-41"/>
     <use xlink:href="#HelveticaNeue-20" x="64.799988"/>
     <use xlink:href="#HelveticaNeue-63" x="92.599976"/>
     <use xlink:href="#HelveticaNeue-6f" x="146.299973"/>
     <use xlink:href="#HelveticaNeue-6c" x="203.699966"/>
     <use xlink:href="#HelveticaNeue-2c" x="225.899963"/>
     <use xlink:href="#HelveticaNeue-20" x="253.699951"/>
     <use xlink:href="#HelveticaNeue-42" x="281.499939"/>
     <use xlink:href="#HelveticaNeue-20" x="349.999924"/>
     <use xlink:href="#HelveticaNeue-63" x="377.799911"/>
     <use xlink:href="#HelveticaNeue-6f" x="431.499908"/>
     <use xlink:href="#HelveticaNeue-6c" x="488.899902"/>
    </g>
   </g>
   <g id="text_36">
    <!-- A row, B row -->
    <g style="fill: #52514e" transform="translate(644.815647 219.963423) scale(0.09 -0.09)">
     <use xlink:href="#HelveticaNeue-41"/>
     <use xlink:href="#HelveticaNeue-20" x="64.799988"/>
     <use xlink:href="#HelveticaNeue-72" x="92.599976"/>
     <use xlink:href="#HelveticaNeue-6f" x="124.149963"/>
     <use xlink:href="#HelveticaNeue-77" x="181.549957"/>
     <use xlink:href="#HelveticaNeue-2c" x="251.849945"/>
     <use xlink:href="#HelveticaNeue-20" x="279.649933"/>
     <use xlink:href="#HelveticaNeue-42" x="307.449921"/>
     <use xlink:href="#HelveticaNeue-20" x="375.949905"/>
     <use xlink:href="#HelveticaNeue-72" x="403.749893"/>
     <use xlink:href="#HelveticaNeue-6f" x="435.299881"/>
     <use xlink:href="#HelveticaNeue-77" x="492.699875"/>
    </g>
   </g>
   <g id="text_37">
    <!-- A row, B col -->
    <g style="fill: #52514e" transform="translate(644.815647 236.926039) scale(0.09 -0.09)">
     <use xlink:href="#HelveticaNeue-41"/>
     <use xlink:href="#HelveticaNeue-20" x="64.799988"/>
     <use xlink:href="#HelveticaNeue-72" x="92.599976"/>
     <use xlink:href="#HelveticaNeue-6f" x="124.149963"/>
     <use xlink:href="#HelveticaNeue-77" x="181.549957"/>
     <use xlink:href="#HelveticaNeue-2c" x="251.849945"/>
     <use xlink:href="#HelveticaNeue-20" x="279.649933"/>
     <use xlink:href="#HelveticaNeue-42" x="307.449921"/>
     <use xlink:href="#HelveticaNeue-20" x="375.949905"/>
     <use xlink:href="#HelveticaNeue-63" x="403.749893"/>
     <use xlink:href="#HelveticaNeue-6f" x="457.44989"/>
     <use xlink:href="#HelveticaNeue-6c" x="514.849884"/>
    </g>
   </g>
   <g id="text_38">
    <!-- C row-major -->
    <g style="fill: #0b0b0b" transform="translate(386.574219 43.032312) scale(0.11 -0.11)">
     <use xlink:href="#HelveticaNeue-43"/>
     <use xlink:href="#HelveticaNeue-20" x="72.199982"/>
     <use xlink:href="#HelveticaNeue-72" x="99.999969"/>
     <use xlink:href="#HelveticaNeue-6f" x="131.549957"/>
     <use xlink:href="#HelveticaNeue-77" x="188.949951"/>
     <use xlink:href="#HelveticaNeue-2d" x="264.749939"/>
     <use xlink:href="#HelveticaNeue-6d" x="303.649933"/>
     <use xlink:href="#HelveticaNeue-61" x="388.949921"/>
     <use xlink:href="#HelveticaNeue-6a" x="442.649918"/>
     <use xlink:href="#HelveticaNeue-6f" x="464.849915"/>
     <use xlink:href="#HelveticaNeue-72" x="522.249908"/>
    </g>
   </g>
  </g>
  <g id="legend_1">
   <g id="line2d_43">
    <path d="M 343.08125 12.640625 
L 350.58125 12.640625 
L 358.08125 12.640625 
" style="fill: none; stroke: #2a78d6; stroke-width: 2; stroke-linecap: square"/>
    <g>
     <use xlink:href="#m49201a8d4f" x="350.58125" y="12.640625" style="fill: #2a78d6; stroke: #fcfcfb; stroke-width: 1.5"/>
    </g>
   </g>
   <g id="text_39">
    <!-- A col, B row -->
    <g style="fill: #52514e" transform="translate(366.08125 16.140625) scale(0.1 -0.1)">
     <use xlink:href="#HelveticaNeue-41"/>
     <use xlink:href="#HelveticaNeue-20" x="64.799988"/>
     <use xlink:href="#HelveticaNeue-63" x="92.599976"/>
     <use xlink:href="#HelveticaNeue-6f" x="146.299973"/>
     <use xlink:href="#HelveticaNeue-6c" x="203.699966"/>
     <use xlink:href="#HelveticaNeue-2c" x="225.899963"/>
     <use xlink:href="#HelveticaNeue-20" x="253.699951"/>
     <use xlink:href="#HelveticaNeue-42" x="281.499939"/>
     <use xlink:href="#HelveticaNeue-20" x="349.999924"/>
     <use xlink:href="#HelveticaNeue-72" x="377.799911"/>
     <use xlink:href="#HelveticaNeue-6f" x="409.349899"/>
     <use xlink:href="#HelveticaNeue-77" x="466.749893"/>
    </g>
   </g>
   <g id="line2d_44">
    <path d="M 440.335937 12.640625 
L 447.835937 12.640625 
L 455.335937 12.640625 
" style="fill: none; stroke: #eb6834; stroke-width: 2; stroke-linecap: square"/>
    <g>
     <use xlink:href="#m52cf79d625" x="447.835937" y="12.640625" style="fill: #eb6834; stroke: #fcfcfb; stroke-width: 1.5"/>
    </g>
   </g>
   <g id="text_40">
    <!-- A col, B col -->
    <g style="fill: #52514e" transform="translate(463.335937 16.140625) scale(0.1 -0.1)">
     <use xlink:href="#HelveticaNeue-41"/>
     <use xlink:href="#HelveticaNeue-20" x="64.799988"/>
     <use xlink:href="#HelveticaNeue-63" x="92.599976"/>
     <use xlink:href="#HelveticaNeue-6f" x="146.299973"/>
     <use xlink:href="#HelveticaNeue-6c" x="203.699966"/>
     <use xlink:href="#HelveticaNeue-2c" x="225.899963"/>
     <use xlink:href="#HelveticaNeue-20" x="253.699951"/>
     <use xlink:href="#HelveticaNeue-42" x="281.499939"/>
     <use xlink:href="#HelveticaNeue-20" x="349.999924"/>
     <use xlink:href="#HelveticaNeue-63" x="377.799911"/>
     <use xlink:href="#HelveticaNeue-6f" x="431.499908"/>
     <use xlink:href="#HelveticaNeue-6c" x="488.899902"/>
    </g>
   </g>
   <g id="line2d_45">
    <path d="M 534.446875 12.640625 
L 541.946875 12.640625 
L 549.446875 12.640625 
" style="fill: none; stroke: #1baf7a; stroke-width: 2; stroke-linecap: square"/>
    <g>
     <use xlink:href="#mb60bb16b18" x="541.946875" y="12.640625" style="fill: #1baf7a; stroke: #fcfcfb; stroke-width: 1.5"/>
    </g>
   </g>
   <g id="text_41">
    <!-- A row, B row -->
    <g style="fill: #52514e" transform="translate(557.446875 16.140625) scale(0.1 -0.1)">
     <use xlink:href="#HelveticaNeue-41"/>
     <use xlink:href="#HelveticaNeue-20" x="64.799988"/>
     <use xlink:href="#HelveticaNeue-72" x="92.599976"/>
     <use xlink:href="#HelveticaNeue-6f" x="124.149963"/>
     <use xlink:href="#HelveticaNeue-77" x="181.549957"/>
     <use xlink:href="#HelveticaNeue-2c" x="251.849945"/>
     <use xlink:href="#HelveticaNeue-20" x="279.649933"/>
     <use xlink:href="#HelveticaNeue-42" x="307.449921"/>
     <use xlink:href="#HelveticaNeue-20" x="375.949905"/>
     <use xlink:href="#HelveticaNeue-72" x="403.749893"/>
     <use xlink:href="#HelveticaNeue-6f" x="435.299881"/>
     <use xlink:href="#HelveticaNeue-77" x="492.699875"/>
    </g>
   </g>
   <g id="line2d_46">
    <path d="M 634.295312 12.640625 
L 641.795312 12.640625 
L 649.295312 12.640625 
" style="fill: none; stroke: #eda100; stroke-width: 2; stroke-linecap: square"/>
    <g>
     <use xlink:href="#ma2c80108df" x="641.795312" y="12.640625" style="fill: #eda100; stroke: #fcfcfb; stroke-width: 1.5"/>
    </g>
   </g>
   <g id="text_42">
    <!-- A row, B col -->
    <g style="fill: #52514e" transform="translate(657.295312 16.140625) scale(0.1 -0.1)">
     <use xlink:href="#HelveticaNeue-41"/>
     <use xlink:href="#HelveticaNeue-20" x="64.799988"/>
     <use xlink:href="#HelveticaNeue-72" x="92.599976"/>
     <use xlink:href="#HelveticaNeue-6f" x="124.149963"/>
     <use xlink:href="#HelveticaNeue-77" x="181.549957"/>
     <use xlink:href="#HelveticaNeue-2c" x="251.849945"/>
     <use xlink:href="#HelveticaNeue-20" x="279.649933"/>
     <use xlink:href="#HelveticaNeue-42" x="307.449921"/>
     <use xlink:href="#HelveticaNeue-20" x="375.949905"/>
     <use xlink:href="#HelveticaNeue-63" x="403.749893"/>
     <use xlink:href="#HelveticaNeue-6f" x="457.44989"/>
     <use xlink:href="#HelveticaNeue-6c" x="514.849884"/>
    </g>
   </g>
  </g>
 </g>
 <defs>
  <clipPath id="p96cec18a99">
   <rect x="53.148438" y="49.032312" width="316.664694" height="216.677063"/>
  </clipPath>
  <clipPath id="p0e8aff8102">
   <rect x="386.574219" y="49.032312" width="316.664694" height="216.677063"/>
  </clipPath>
 </defs>
</svg>
